HIERARCHY
ROOT hips
{
  OFFSET 0 10.6860622 2.3727825e-15
  CHANNELS 6 Xposition Yposition Zposition Yrotation Xrotation Zrotation
  JOINT leftUpperLeg
  {
    OFFSET 0.6642549969 -0.9402397400000004 0
    CHANNELS 3 Yrotation Xrotation Zrotation
    JOINT leftLowerLeg
    {
      OFFSET 0 -3.997221335632195 0
      CHANNELS 3 Yrotation Xrotation Zrotation
      JOINT leftFoot
      {
        OFFSET -0.13777839790000004 -4.6145792000000005 -0.22186036399999998
        CHANNELS 3 Yrotation Xrotation Zrotation
        JOINT leftToes
        {
          OFFSET -0.03777410834999995 -0.9130806927000008 0.85230013
          CHANNELS 3 Yrotation Xrotation Zrotation
          End Site
          {
            OFFSET -0.03777410834999995 -0.9130806927000008 0.85230013
          }
        }
      }
    }
  }
  JOINT rightUpperLeg
  {
    OFFSET -0.6642778626 -0.9402397400000004 0
    CHANNELS 3 Yrotation Xrotation Zrotation
    JOINT rightLowerLeg
    {
      OFFSET 0 -3.997221452859387 0
      CHANNELS 3 Yrotation Xrotation Zrotation
      JOINT rightFoot
      {
        OFFSET 0.1377926176 -4.6145792000000005 -0.22185782299999995
        CHANNELS 3 Yrotation Xrotation Zrotation
        JOINT rightToes
        {
          OFFSET 0.037780746850000047 -0.9130806927000008 0.85230167
          CHANNELS 3 Yrotation Xrotation Zrotation
          End Site
          {
            OFFSET 0.037780746850000047 -0.9130806927000008 0.85230167
          }
        }
      }
    }
  }
  JOINT spine
  {
    OFFSET 0 0.13988381660000015 0
    CHANNELS 3 Yrotation Xrotation Zrotation
    JOINT chest
    {
      OFFSET 0 0.6191039003973773 0
      CHANNELS 3 Yrotation Xrotation Zrotation
      JOINT upperChest
      {
        OFFSET 0 0.9855186130586943 0
        CHANNELS 3 Yrotation Xrotation Zrotation
        JOINT leftShoulder
        {
          OFFSET 0.1807663869 1.5087829790000005 0
          CHANNELS 3 Yrotation Xrotation Zrotation
          JOINT leftUpperArm
          {
            OFFSET 0.5985063006419806 0 0
            CHANNELS 3 Yrotation Xrotation Zrotation
            JOINT leftLowerArm
            {
              OFFSET 2.2993332369501065 0 0
              CHANNELS 3 Yrotation Xrotation Zrotation
              JOINT leftHand
              {
                OFFSET 2.395047042602395 0 0
                CHANNELS 3 Yrotation Xrotation Zrotation
                JOINT leftIndexProximal
                {
                  OFFSET 0.5766295810000004 0.04556643899499946 0.17265095988184
                  CHANNELS 3 Yrotation Xrotation Zrotation
                  JOINT leftIndexIntermediate
                  {
                    OFFSET 0.2957229000000008 -0.019352197700001517 -0.007932640616999987
                    CHANNELS 3 Yrotation Xrotation Zrotation
                    JOINT leftIndexDistal
                    {
                      OFFSET 0.19008243099999922 -0.012484908149998475 -0.002786250786000012
                      CHANNELS 3 Yrotation Xrotation Zrotation
                      End Site
                      {
                        OFFSET 0.19008243099999922 -0.012484908149998475 -0.002786250786000012
                      }
                    }
                  }
                }
                JOINT leftMiddleProximal
                {
                  OFFSET 0.5834975091000001 0.0524350405149987 0.02204081888183999
                  CHANNELS 3 Yrotation Xrotation Zrotation
                  JOINT leftMiddleIntermediate
                  {
                    OFFSET 0.33880573540000003 -0.019871473270000717 -0.00000971183179999946
                    CHANNELS 3 Yrotation Xrotation Zrotation
                    JOINT leftMiddleDistal
                    {
                      OFFSET 0.20676022730000088 -0.012221336379999448 0.0001471936708000235
                      CHANNELS 3 Yrotation Xrotation Zrotation
                      End Site
                      {
                        OFFSET 0.20676022730000088 -0.012221336379999448 0.0001471936708000235
                      }
                    }
                  }
                }
                JOINT leftLittleProximal
                {
                  OFFSET 0.5344154683999995 -0.012880921405001189 -0.24414037221816004
                  CHANNELS 3 Yrotation Xrotation Zrotation
                  JOINT leftLittleIntermediate
                  {
                    OFFSET 0.21758961730000093 -0.011650919939999227 0.011893592810000034
                    CHANNELS 3 Yrotation Xrotation Zrotation
                    JOINT leftLittleDistal
                    {
                      OFFSET 0.1475273964999999 -0.008152365682999818 0.006001092492999946
                      CHANNELS 3 Yrotation Xrotation Zrotation
                      End Site
                      {
                        OFFSET 0.1475273964999999 -0.008152365682999818 0.006001092492999946
                      }
                    }
                  }
                }
                JOINT leftRingProximal
                {
                  OFFSET 0.5799399463000003 0.026911854694997794 -0.12150566991816003
                  CHANNELS 3 Yrotation Xrotation Zrotation
                  JOINT leftRingIntermediate
                  {
                    OFFSET 0.26167887460000006 -0.013480186499999602 0.010996293000000053
                    CHANNELS 3 Yrotation Xrotation Zrotation
                    JOINT leftRingDistal
                    {
                      OFFSET 0.17667108799999987 -0.008990287899999228 0.0055541023999999065
                      CHANNELS 3 Yrotation Xrotation Zrotation
                      End Site
                      {
                        OFFSET 0.17667108799999987 -0.008990287899999228 0.0055541023999999065
                      }
                    }
                  }
                }
                JOINT leftThumbProximal
                {
                  OFFSET 0.11018806699999972 -0.09448718900500053 0.17047963138184
                  CHANNELS 3 Yrotation Xrotation Zrotation
                  JOINT leftThumbIntermediate
                  {
                    OFFSET 0.31062601459999983 -0.08126270900000132 0.15443142000000007
                    CHANNELS 3 Yrotation Xrotation Zrotation
                    JOINT leftThumbDistal
                    {
                      OFFSET 0.21627175790000086 -0.08833193599999878 0.018771167799999988
                      CHANNELS 3 Yrotation Xrotation Zrotation
                      End Site
                      {
                        OFFSET 0.21627175790000086 -0.08833193599999878 0.018771167799999988
                      }
                    }
                  }
                }
              }
            }
          }
        }
        JOINT neck
        {
          OFFSET 0 1.5463305265074576 0
          CHANNELS 3 Yrotation Xrotation Zrotation
          JOINT head
          {
            OFFSET 0 0.8456443600000344 0
            CHANNELS 3 Yrotation Xrotation Zrotation
            JOINT leftEye
            {
              OFFSET 0.30408573140000006 0.5104519199999995 0.1276382305
              CHANNELS 3 Yrotation Xrotation Zrotation
              End Site
              {
                OFFSET 0.30408573140000006 0.5104519199999995 0.1276382305
              }
            }
            JOINT rightEye
            {
              OFFSET -0.30409491089999996 0.5104519199999995 0.1276379445
              CHANNELS 3 Yrotation Xrotation Zrotation
              End Site
              {
                OFFSET -0.30409491089999996 0.5104519199999995 0.1276379445
              }
            }
            JOINT jaw
            {
              OFFSET -3.155239131000001e-7 -0.11984121820000082 0.60178107
              CHANNELS 3 Yrotation Xrotation Zrotation
              End Site
              {
                OFFSET -3.155239131000001e-7 -0.11984121820000082 0.60178107
              }
            }
          }
        }
        JOINT rightShoulder
        {
          OFFSET -0.1807303465 1.5087829790000005 0
          CHANNELS 3 Yrotation Xrotation Zrotation
          JOINT rightUpperArm
          {
            OFFSET -0.5985063796536958 0 0
            CHANNELS 3 Yrotation Xrotation Zrotation
            JOINT rightLowerArm
            {
              OFFSET -2.2993322059002854 0 0
              CHANNELS 3 Yrotation Xrotation Zrotation
              JOINT rightHand
              {
                OFFSET -2.395045314457259 0 0
                CHANNELS 3 Yrotation Xrotation Zrotation
                JOINT rightIndexProximal
                {
                  OFFSET -0.5764487688300002 0.0441371204405987 0.17361932004999997
                  CHANNELS 3 Yrotation Xrotation Zrotation
                  JOINT rightIndexIntermediate
                  {
                    OFFSET -0.29573011380000047 -0.01934826376999843 -0.007698921482999974
                    CHANNELS 3 Yrotation Xrotation Zrotation
                    JOINT rightIndexDistal
                    {
                      OFFSET -0.19008373999999884 -0.012503266380000655 -0.0026365778999999897
                      CHANNELS 3 Yrotation Xrotation Zrotation
                      End Site
                      {
                        OFFSET -0.19008373999999884 -0.012503266380000655 -0.0026365778999999897
                      }
                    }
                  }
                }
                JOINT rightMiddleProximal
                {
                  OFFSET -0.5834852037300005 0.05211639405060153 0.02307162440000001
                  CHANNELS 3 Yrotation Xrotation Zrotation
                  JOINT rightMiddleIntermediate
                  {
                    OFFSET -0.33880114510000003 -0.019952774050000954 0.0002455003561999819
                    CHANNELS 3 Yrotation Xrotation Zrotation
                    JOINT rightMiddleDistal
                    {
                      OFFSET -0.20675694929999955 -0.012273788999999091 0.00030209124000002766
                      CHANNELS 3 Yrotation Xrotation Zrotation
                      End Site
                      {
                        OFFSET -0.20675694929999955 -0.012273788999999091 0.00030209124000002766
                      }
                    }
                  }
                }
                JOINT rightLittleProximal
                {
                  OFFSET -0.5346811737299992 -0.011214256288399227 -0.24363941305000003
                  CHANNELS 3 Yrotation Xrotation Zrotation
                  JOINT rightLittleIntermediate
                  {
                    OFFSET -0.21757715980000092 -0.011771559690000988 0.01201554387
                    CHANNELS 3 Yrotation Xrotation Zrotation
                    JOINT rightLittleDistal
                    {
                      OFFSET -0.1475201849000004 -0.00822055339600003 0.006082065407000015
                      CHANNELS 3 Yrotation Xrotation Zrotation
                      End Site
                      {
                        OFFSET -0.1475201849000004 -0.00822055339600003 0.006082065407000015
                      }
                    }
                  }
                }
                JOINT rightRingProximal
                {
                  OFFSET -0.5800810755299999 0.027657985680600072 -0.12066365025000003
                  CHANNELS 3 Yrotation Xrotation Zrotation
                  JOINT rightRingIntermediate
                  {
                    OFFSET -0.26166445029999974 -0.013623118409999302 0.011164098990000045
                    CHANNELS 3 Yrotation Xrotation Zrotation
                    JOINT rightRingDistal
                    {
                      OFFSET -0.17666387530000027 -0.009072900100000503 0.005668185599999959
                      CHANNELS 3 Yrotation Xrotation Zrotation
                      End Site
                      {
                        OFFSET -0.17666387530000027 -0.009072900100000503 0.005668185599999959
                      }
                    }
                  }
                }
                JOINT rightThumbProximal
                {
                  OFFSET -0.10997596379000074 -0.09577489355940072 0.16989765924999997
                  CHANNELS 3 Yrotation Xrotation Zrotation
                  JOINT rightThumbIntermediate
                  {
                    OFFSET -0.31036620999999986 -0.08229339117999834 0.15440884469999996
                    CHANNELS 3 Yrotation Xrotation Zrotation
                    JOINT rightThumbDistal
                    {
                      OFFSET -0.21631306399999906 -0.08825326400000111 0.018656797720000014
                      CHANNELS 3 Yrotation Xrotation Zrotation
                      End Site
                      {
                        OFFSET -0.21631306399999906 -0.08825326400000111 0.018656797720000014
                      }
                    }
                  }
                }
              }
            }
          }
        }
      }
    }
  }
}
MOTION
Frames: 7
Frame Time: 0.03333333333333333
0 11.682712981546562 0 0 0 0 0 0 -5.826343164929014 -0.3712483961610101 -3.6333298826370974 5.838118207697276 0 0 0 0 0 0 0 0 5.826343164929014 0.3712483961610101 -3.6333298826370974 -5.838118207697276 0 0 0 0 0 0 0 -4.610651315171937 0 0 3.0831277533083026 0 0 0 0 0 1.5275236235667615 0 0 0 0 0 0 0 0 0 0 0 0 0 0 0 0 0 0 0 0 0 0 0 0 0 0 0 0 0 0 0 0 0 0 0 0 0 0 0 0 0 0 0 0 0 0 0 0 0 0 0 0 0 0 0 0 1.5275236235667615 0 0 0 0 0 0 0 0 0 0 0 0 0 0 1.5275236235667615 0 0 0 0 0 0 0 0 0 0 0 0 0 0 0 0 0 0 0 0 0 0 0 0 0 0 0 0 0 0 0 0 0 0 0 0 0 0 0 0 0 0 0 0 0 0 0 0 0 0 0 0 0 0 0
0.9198476802260228 -5.847226766531287 7.183868051459842 -169.1046752070839 -0.013345917118280915 0.011022099899719274 0.7472970624900394 -16.85993958736731 -0.20916728439882065 156.59527418876874 75.46826611868093 162.1931056464192 16.97742883378071 58.58497254841618 19.168704921274998 0 0 0 2.6723041540608596 -14.383257333206794 -2.0809904167220843 -154.631333245188 74.47285130476021 -160.51392857197817 -8.46162937287966 60.12279396670713 -13.251525204855719 0 0 0 -0.9246543829621421 -3.1840040347691225 -2.014933598104239 -0.7660742037361269 18.635893643715992 -8.325372828658425 0 0 0 55.35932494141183 -48.53498196402133 -45.23377928609474 -10.466507406143737 33.9056034637384 -61.60289695512921 -16.574826601602272 4.840598367891387 70.45735309869961 -3.598009806982912 -27.414223077994688 -2.160209446559804 0 0 0 0 0 0 0 0 0 0 0 0 0 0 0 0 0 0 0 0 0 0 0 0 0 0 0 0 0 0 0 0 0 0 0 0 0 0 0 0 0 0 0 0 0 0 11.51567570812455 0 0 -37.00450449051323 0 0 0 0 0 0 0 0 0 0 23.01305403504793 -26.71354123354836 -5.9999062566635635 14.80864905726097 -29.815182396891405 54.11257158706649 38.46730793002758 -2.2424283504967337 -1.3288637189264159 3.240095748180989 -14.113153138508325 8.135894205564664 0 0 0 0 0 0 0 0 0 0 0 0 0 0 0 0 0 0 0 0 0 0 0 0 0 0 0 0 0 0 0 0 0 0 0 0 0 0 0 0 0 0 0 0 0
0.9198476802260228 -5.847226766531287 7.183868051459842 -169.1046752070839 -0.013345917118280915 0.011022099899719274 0.7408843679922097 -16.772826264040464 -0.201129147493323 156.59527418876874 75.46826611868093 162.1931056464192 16.97742883378071 58.58497254841618 19.168704921274998 0 0 0 2.6723041540608596 -14.383257333206794 -2.0809904167220843 -154.631333245188 74.47285130476021 -160.51392857197817 -8.46162937287966 60.12279396670713 -13.251525204855719 0 0 0 -0.9077690054146068 -2.6779493043412135 -2.2373285056598373 -0.7728810223825409 18.542013920912357 -8.408333493532988 0 0 0 55.73438541367767 -48.279150860460874 -45.65482127830294 -10.550602417748268 33.833629270342165 -61.16153263382165 -16.981017953976725 4.5449183313459836 68.29865463026319 -3.598009806982912 -27.414223077994688 -2.160209446559804 0 0 0 0 0 0 0 0 0 0 0 0 0 0 0 0 0 0 0 0 0 0 0 0 0 0 0 0 0 0 0 0 0 0 0 0 0 0 0 0 0 0 0 0 0 0 11.51567483681148 0 0 -37.00450449051323 0 0 0 0 0 0 0 0 0 0 22.168971346065124 -26.607007082991817 -5.91939831961881 14.91020659058373 -29.779397825888058 54.37446224524372 39.38976576077206 -2.2447316764666025 -1.186706335507678 3.0760215874638104 -14.41210743370749 7.981989367169123 0 0 0 0 0 0 0 0 0 0 0 0 0 0 0 0 0 0 0 0 0 0 0 0 0 0 0 0 0 0 0 0 0 0 0 0 0 0 0 0 0 0 0 0 0
0.9198476802260228 -5.847226766531287 7.183868051459842 -169.1046752070839 -0.013345917118280915 0.011022099899719274 0.7344873860565525 -16.68571184252128 -0.19310486607093605 156.59527418876874 75.46826611868093 162.1931056464192 16.97742883378071 58.58497254841618 19.168704921274998 0 0 0 2.672303053508453 -14.383255570405906 -2.080989976312515 -154.631333245188 74.47285130476021 -160.51392857197817 -8.46162937287966 60.12279396670713 -13.251525204855719 0 0 0 -0.8928557198188903 -2.171832712372521 -2.4594906902904268 -0.7795408303711687 18.44812456196605 -8.491236268200355 0 0 0 56.104752653115234 -48.02151050053955 -46.07124936435997 -10.63529185134323 33.76219625018826 -60.72040980105551 -17.375591213700446 4.234209662772145 66.14298741717464 -3.5980100469540983 -27.414221154433655 -2.1602093015470225 0 0 0 0 0 0 0 0 0 0 0 0 0 0 0 0 0 0 0 0 0 0 0 0 0 0 0 0 0 0 0 0 0 0 0 0 0 0 0 0 0 0 0 0 0 0 11.51567483681148 0 0 -37.00450021409828 0 0 0 0 0 0 0 0 0 0 21.325842886221633 -26.49942534856205 -5.840728451390384 15.011916098466925 -29.74401543580202 54.63632966106498 40.312220172774325 -2.24932146426693 -1.0446039648575294 2.9125551971939947 -14.71148784456006 7.828760733956133 0 0 0 0 0 0 0 0 0 0 0 0 0 0 0 0 0 0 0 0 0 0 0 0 0 0 0 0 0 0 0 0 0 0 0 0 0 0 0 0 0 0 0 0 0
0.9198476802260228 -5.847226766531287 7.183868051459842 -169.1046752070839 -0.013345917118280915 0.011022099899719274 0.7217392516405794 -16.511462877280223 -0.17709716198998376 156.59527418876874 75.46826611868093 162.1931056464192 16.97742883378071 58.58497254841618 19.168704921274998 0 0 0 2.6723043184371065 -14.383258214607244 -2.0809904167220843 -154.631333245188 74.47285130476021 -160.51392857197817 -8.46162937287966 60.12279396670713 -13.251525204855719 0 0 0 -0.868898320203227 -1.1579266186423922 -2.903923809094235 -0.7924213962191696 18.260305202985002 -8.656884424950064 0 0 0 56.83215332100246 -47.50054527553265 -46.89107588760583 -10.806613638681574 33.62077564538496 -59.83776008590161 -18.128849065302195 3.568554679621619 61.83454182416621 -3.59801004841235 -27.414225001555753 -2.160209446559804 0 0 0 0 0 0 0 0 0 0 0 0 0 0 0 0 0 0 0 0 0 0 0 0 0 0 0 0 0 0 0 0 0 0 0 0 0 0 0 0 0 0 0 0 0 0 11.51567570812455 0 0 -37.00450449051323 0 0 0 0 0 0 0 0 0 0 19.636869093380636 -26.280485702602114 -5.6884563639841454 15.21602589154417 -29.674384697012332 55.160623161598096 42.165194343857614 -2.2654451123653603 -0.7594626066482866 2.5871830731619236 -15.311963416386138 7.524095202405449 0 0 0 0 0 0 0 0 0 0 0 0 0 0 0 0 0 0 0 0 0 0 0 0 0 0 0 0 0 0 0 0 0 0 0 0 0 0 0 0 0 0 0 0 0
0.9198476802260228 -5.847226766531287 7.183868051459842 -169.1046752070839 -0.013345917118280915 0.011022099899719274 0.7153879597266833 -16.424331509618806 -0.16911309286926432 156.59527418876874 75.46826611868093 162.1931056464192 16.97742883378071 58.58497254841618 19.168704921274998 0 0 0 2.6723043184371065 -14.383258214607244 -2.0809904167220843 -154.631333245188 74.47285130476021 -160.51392706864078 -8.46162937287966 60.12279396670713 -13.251525204855719 0 0 0 -0.8598616906864422 -0.650244178586821 -3.126221923078259 -0.7986424506308082 18.16637474308431 -8.73962984580004 0 0 0 57.18924133511185 -47.23730634615006 -47.29452918416812 -10.893242670192073 33.550822351201354 -59.39632583503163 -18.485436498223216 3.2155587579087266 59.68797491044818 -3.59801004841235 -27.414225001555753 -2.160209446559804 0 0 0 0 0 0 0 0 0 0 0 0 0 0 0 0 0 0 0 0 0 0 0 0 0 0 0 0 0 0 0 0 0 0 0 0 0 0 0 0 0 0 0 0 0 0 11.51567570812455 0 0 -37.00450449051323 0 0 0 0 0 0 0 0 0 0 18.79137415940244 -26.169210242005203 -5.614930918342234 15.318416537632398 -29.640129642893147 55.42302703750001 43.095242232137196 -2.2770093829878233 -0.6165729973500937 2.4252821845885726 -15.61301700602401 7.372660315155504 0 0 0 0 0 0 0 0 0 0 0 0 0 0 0 0 0 0 0 0 0 0 0 0 0 0 0 0 0 0 0 0 0 0 0 0 0 0 0 0 0 0 0 0 0
0.9198476802260228 -5.847226766531287 7.183868051459842 -169.1046752070839 -0.013345917118280915 0.011022099899719274 0.7090521769350583 -16.337198257397993 -0.16114268106025328 156.59527418876874 75.46826611868093 162.1931056464192 16.97742883378071 58.58497254841618 19.168704921274998 0 0 0 2.6723041540608596 -14.383257333206794 -2.0809904167220843 -154.631333245188 74.47285130476021 -160.51392706864078 -8.46162937287966 60.12279396670713 -13.251525204855719 0 0 0 -0.8527953437890433 -0.1425304935503789 -3.348426395396368 -0.8047174843009102 18.072435511717963 -8.822319783498354 0 0 0 57.54183527190095 -46.97237573138939 -47.693572947938776 -10.980446722641547 33.481425179943315 -58.95511987396586 -18.828418959391414 2.849486317789343 57.54436254666818 -3.598009806982912 -27.414223077994688 -2.160209446559804 0 0 0 0 0 0 0 0 0 0 0 0 0 0 0 0 0 0 0 0 0 0 0 0 0 0 0 0 0 0 0 0 0 0 0 0 0 0 0 0 0 0 0 0 0 0 11.51567570812455 0 0 -37.00450449051323 0 0 0 0 0 0 0 0 0 0 17.94684584705851 -26.056972653234567 -5.543311435869357 15.420951601485534 -29.606284921162988 55.68541461749796 44.0252680025846 -2.2908897490502342 -0.4738887630573233 2.2639686684656484 -15.914483113590082 7.221885608620587 0 0 0 0 0 0 0 0 0 0 0 0 0 0 0 0 0 0 0 0 0 0 0 0 0 0 0 0 0 0 0 0 0 0 0 0 0 0 0 0 0 0 0 0 0
